<svg id="Layer_1" xmlns="http://www.w3.org/2000/svg" viewBox="0 0 800 1096.5"><style>.st0{fill:none;stroke:#414141;stroke-width:4;stroke-linejoin:round;stroke-miterlimit:10;} .st1{fill:#FFFFFF;stroke:#414141;stroke-width:4;stroke-linejoin:round;stroke-miterlimit:10;} .st2{fill:#A58BC0;stroke:#414141;stroke-width:4;stroke-linecap:round;stroke-linejoin:round;stroke-miterlimit:10;} .st3{fill:none;stroke:#414141;stroke-width:4;stroke-linecap:round;stroke-linejoin:round;stroke-miterlimit:10;} .st4{fill:#000100;} .st5{fill:none;stroke:#414141;stroke-width:4;stroke-linecap:round;stroke-linejoin:round;} .st6{fill:none;stroke:#414141;stroke-width:4;stroke-linecap:round;stroke-linejoin:round;stroke-dasharray:5.773,9.6216;} .st7{fill:none;stroke:#414141;stroke-width:4;stroke-linecap:round;stroke-linejoin:round;stroke-dasharray:6.4378,10.7297;} .st8{fill:none;stroke:#414141;stroke-width:4;stroke-linecap:round;stroke-linejoin:round;stroke-dasharray:6.017,10.0283;} .st9{fill:none;stroke:#414141;stroke-width:4;stroke-linecap:round;stroke-linejoin:round;stroke-dasharray:6.1571,10.2619;} .st10{fill:#FFFFFF;} .st11{fill:none;stroke:#414141;stroke-width:4;stroke-linecap:round;stroke-linejoin:round;stroke-dasharray:6.3663,10.6105;} .st12{fill:none;stroke:#414141;stroke-width:4;stroke-linecap:round;stroke-linejoin:round;stroke-dasharray:6.9923,11.6539;} .st13{fill:none;stroke:#414141;stroke-width:4;stroke-linecap:round;stroke-linejoin:round;stroke-dasharray:6.7154,11.1923;} .st14{fill:#979797;} .st15{fill:#B5E0F7;stroke:#414141;stroke-width:4;stroke-linecap:round;stroke-linejoin:round;stroke-miterlimit:10;} .st16{fill:#B18BE8;stroke:#404040;stroke-width:4;stroke-miterlimit:10;} .st17{fill:none;stroke:#404040;stroke-width:4;stroke-linecap:round;stroke-linejoin:round;stroke-miterlimit:10;} .st18{fill:#FC8363;stroke:#404040;stroke-width:4;stroke-miterlimit:10;} .st19{fill:none;stroke:#414141;stroke-width:4;stroke-linecap:round;stroke-linejoin:round;stroke-dasharray:6.0329,10.0548;} .st20{fill:none;stroke:#414141;stroke-width:4;stroke-linecap:round;stroke-linejoin:round;stroke-dasharray:5.9778,9.963;} .st21{fill:#B18BE8;stroke:#404040;stroke-width:4;stroke-linejoin:round;stroke-miterlimit:10;} .st22{fill:#FC8363;stroke:#404040;stroke-width:4;stroke-linejoin:round;stroke-miterlimit:10;} .st23{font-family:&apos;CircularPro-Book&apos;;} .st24{font-size:15px;} .st25{fill:#B5E0F7;stroke:#404040;stroke-width:4;stroke-linejoin:round;stroke-miterlimit:10;} .st26{fill:none;stroke:#404040;stroke-width:4;stroke-linecap:round;stroke-linejoin:round;} .st27{fill:#B5E0F7;stroke:#404040;stroke-width:4;stroke-linecap:round;stroke-linejoin:round;stroke-miterlimit:10;} .st28{fill:none;stroke:#414141;stroke-width:4;stroke-linecap:round;stroke-linejoin:round;stroke-miterlimit:10;stroke-dasharray:6,10;} .st29{fill:none;stroke:#414141;stroke-width:4;stroke-linecap:round;stroke-linejoin:round;stroke-dasharray:6.1001,10.1669;} .st30{fill:none;stroke:#414141;stroke-width:4;stroke-linecap:round;stroke-linejoin:round;stroke-dasharray:5.9247,9.8746;} .st31{fill:#59ABDD;stroke:#404040;stroke-width:4;stroke-linejoin:round;stroke-miterlimit:10;} .st32{fill:#61C19B;stroke:#404040;stroke-width:4;stroke-linejoin:round;stroke-miterlimit:10;} .st33{fill:#61C19B;stroke:#404040;stroke-width:4;stroke-linecap:round;stroke-linejoin:round;stroke-miterlimit:10;} .st34{fill:none;stroke:#414141;stroke-width:4;stroke-linecap:round;stroke-linejoin:round;stroke-dasharray:5.977,9.9616;} .st35{fill:#DADFE2;stroke:#404040;stroke-width:4;stroke-linejoin:round;stroke-miterlimit:10;} .st36{fill:none;stroke:#404040;stroke-width:4;stroke-linejoin:round;stroke-miterlimit:10;}</style><path class="st5" d="M770 367L770 370 767 370"/><path class="st19" d="M756.9 370L38 370"/><path class="st5" d="M33 370L30 370 30 367"/><path class="st20" d="M30 357L30 59.1"/><path class="st5" d="M30 54.2L30 51.2 33 51.2"/><path class="st19" d="M43.1 51.2L762 51.2"/><path class="st5" d="M767 51.2L770 51.2 770 54.2"/><path class="st20" d="M770 64.1L770 362"/><path class="st1" d="M256.5 218.7L171.3 218.7 171.3 106.4 240.5 106.4 240.5 121.9 256.5 121.9z"/><path class="st15" d="M240.5,106.4l16,15.5l-16,0V106.4z"/><path class="st21" d="M212 133.1H277.1V148.4H212z"/><path class="st22" d="M203.5 159.7H268.6V175H203.5z"/><path class="st21" d="M212 186.3H277.1V201.60000000000002H212z"/><text transform="translate(191.82 260)"><tspan x="0" y="0" class="st4 st23 st24">Tracked </tspan><tspan x="15.1" y="18" class="st4 st23 st24">Files</tspan></text><path class="st1" d="M432.3 218.7L347.1 218.7 347.1 106.4 416.3 106.4 416.3 121.9 432.3 121.9z"/><path class="st15" d="M416.3,106.4l16,15.5l-16,0V106.4z"/><path class="st21" d="M387.8 133.1H452.9V148.4H387.8z"/><path class="st22" d="M379.3 159.7H444.4V175H379.3z"/><path class="st21" d="M387.8 186.3H452.9V201.60000000000002H387.8z"/><text transform="translate(359.41 260)"><tspan x="0" y="0" class="st4 st23 st24">Untracked </tspan><tspan x="23.3" y="18" class="st4 st23 st24">Files</tspan></text><path class="st1" d="M608.1 218.7L522.9 218.7 522.9 106.4 592.1 106.4 592.1 121.9 608.1 121.9z"/><path class="st15" d="M592.1,106.4l16,15.5l-16,0V106.4z"/><path class="st21" d="M563.6 133.1H628.7V148.4H563.6z"/><path class="st22" d="M555.1 159.7H620.2V175H555.1z"/><path class="st21" d="M563.6 186.3H628.7V201.60000000000002H563.6z"/><text transform="translate(547.01 260)"><tspan x="0" y="0" class="st4 st23 st24">Ignored</tspan><tspan x="11.5" y="18" class="st4 st23 st24">Files</tspan></text><text transform="translate(671.237 340)" class="st4 st23 st24">Worktree</text><path class="st5" d="M770 707.5L770 710.5 767 710.5"/><path class="st19" d="M756.9 710.5L38 710.5"/><path class="st5" d="M33 710.5L30 710.5 30 707.5"/><path class="st20" d="M30 697.5L30 399.6"/><path class="st5" d="M30 394.6L30 391.6 33 391.6"/><path class="st19" d="M43.1 391.6L762 391.6"/><path class="st5" d="M767 391.6L770 391.6 770 394.6"/><path class="st20" d="M770 404.6L770 702.5"/><path class="st1" d="M448.4 612.4L320.6 612.4 320.6 444 424.4 444 424.4 467.2 448.4 467.2z"/><path class="st15" d="M424.4,444l24,23.3l-24-0.1V444z"/><path class="st21" d="M381.7 484H479.4V507H381.7z"/><path class="st22" d="M369 523.9H466.7V546.9H369z"/><path class="st21" d="M381.7 563.9H479.4V586.9H381.7z"/><text transform="translate(371.66 646.63)"><tspan x="0" y="0" class="st4 st23 st24">Staged </tspan><tspan x="-2.4" y="18" class="st4 st23 st24">changes</tspan></text><text transform="translate(685.944 680.472)" class="st4 st23 st24">Index</text><path class="st5" d="M770 1045.9L770 1048.9 767 1048.9"/><path class="st19" d="M756.9 1048.9L38 1048.9"/><path class="st5" d="M33 1048.9L30 1048.9 30 1045.9"/><path class="st20" d="M30 1036L30 738.1"/><path class="st5" d="M30 733.1L30 730.1 33 730.1"/><path class="st19" d="M43.1 730.1L762 730.1"/><path class="st5" d="M767 730.1L770 730.1 770 733.1"/><path class="st20" d="M770 743.1L770 1041"/><text transform="translate(666.182 1018.934)" class="st4 st23 st24">Repository</text><circle class="st25" cx="399.6" cy="889.5" r="30"/><path class="st26" d="M399.6,1048.9V919.5"/><path class="st27" d="M179.1,864.5h94v50h-94V864.5z"/><text transform="translate(205.486 895.716)" class="st4 st23 st24">HEAD</text><path class="st26" d="M336.5,889.5h-43.3"/><path class="st26" d="M330.5,898.2l8.7-8.7l-8.7-8.7"/><text transform="translate(340.338 21.874)" class="st14 st23 st24">Before stashing</text></svg>