<svg id="Layer_1" xmlns="http://www.w3.org/2000/svg" viewBox="0 0 800 1096.5"><style>.st0{fill:none;stroke:#414141;stroke-width:4;stroke-linecap:round;stroke-linejoin:round;stroke-miterlimit:10;stroke-dasharray:6,10;} .st1{fill:#FFFFFF;stroke:#414141;stroke-width:4;stroke-linejoin:round;stroke-miterlimit:10;} .st2{fill:#B5E0F7;stroke:#414141;stroke-width:4;stroke-linecap:round;stroke-linejoin:round;stroke-miterlimit:10;} .st3{fill:#B18BE8;stroke:#404040;stroke-width:4;stroke-linejoin:round;stroke-miterlimit:10;} .st4{fill:#FC8363;stroke:#404040;stroke-width:4;stroke-linejoin:round;stroke-miterlimit:10;} .st5{fill:#000100;} .st6{font-family:&apos;CircularPro-Book&apos;;} .st7{font-size:15px;} .st8{fill:none;stroke:#414141;stroke-width:4;stroke-linecap:round;stroke-linejoin:round;} .st9{fill:none;stroke:#414141;stroke-width:4;stroke-linecap:round;stroke-linejoin:round;stroke-dasharray:6.0329,10.0548;} .st10{fill:none;stroke:#414141;stroke-width:4;stroke-linecap:round;stroke-linejoin:round;stroke-dasharray:6.1001,10.1669;} .st11{fill:none;stroke:#414141;stroke-width:4;stroke-linecap:round;stroke-linejoin:round;stroke-dasharray:5.9247,9.8746;} .st12{fill:#979797;} .st13{fill:#B5E0F7;stroke:#404040;stroke-width:4;stroke-linejoin:round;stroke-miterlimit:10;} .st14{fill:none;stroke:#404040;stroke-width:4;stroke-linecap:round;stroke-linejoin:round;} .st15{fill:#B5E0F7;stroke:#404040;stroke-width:4;stroke-linecap:round;stroke-linejoin:round;stroke-miterlimit:10;} .st16{fill:#59ABDD;stroke:#404040;stroke-width:4;stroke-linejoin:round;stroke-miterlimit:10;} .st17{fill:#61C19B;stroke:#404040;stroke-width:4;stroke-linejoin:round;stroke-miterlimit:10;} .st18{fill:#61C19B;stroke:#404040;stroke-width:4;stroke-linecap:round;stroke-linejoin:round;stroke-miterlimit:10;} .st19{fill:#DADFE2;stroke:#404040;stroke-width:4;stroke-linejoin:round;stroke-miterlimit:10;}</style><path class="st0" d="M30 51.2H770V370H30z"/><path class="st1" d="M432.3 218.7L347.1 218.7 347.1 106.4 416.3 106.4 416.3 121.9 432.3 121.9z"/><path class="st2" d="M416.3,106.4l16,15.5h-16V106.4z"/><path class="st3" d="M387.8 133.1H452.9V148.4H387.8z"/><path class="st4" d="M379.3 159.7H444.4V175H379.3z"/><path class="st3" d="M387.8 186.3H452.9V201.60000000000002H387.8z"/><text transform="translate(371.208 260)" class="st5 st6 st7">Ignored</text><text transform="translate(382.708 278)" class="st5 st6 st7">Files</text><text transform="translate(671.237 340)" class="st5 st6 st7">Worktree</text><path class="st8" d="M770 567.5L770 570.5 767 570.5"/><path class="st9" d="M756.9 570.5L38 570.5"/><path class="st8" d="M33 570.5L30 570.5 30 567.5"/><path class="st10" d="M30 557.3L30 399.7"/><path class="st8" d="M30 394.6L30 391.6 33 391.6"/><path class="st9" d="M43.1 391.6L762 391.6"/><path class="st8" d="M767 391.6L770 391.6 770 394.6"/><path class="st10" d="M770 404.8L770 562.4"/><text transform="translate(685.944 540.472)" class="st5 st6 st7">Index</text><text transform="translate(376.683 487.255)" class="st5 st6 st7">Empty</text><path class="st8" d="M770 1043L770 1046 767 1046"/><path class="st9" d="M756.9 1046L38 1046"/><path class="st8" d="M33 1046L30 1046 30 1043"/><path class="st11" d="M30 1033.1L30 595.7"/><path class="st8" d="M30 590.7L30 587.7 33 587.7"/><path class="st9" d="M43.1 587.7L762 587.7"/><path class="st8" d="M767 587.7L770 587.7 770 590.7"/><path class="st11" d="M770 600.6L770 1038.1"/><text transform="translate(666.183 1018.933)" class="st5 st6 st7">Repository</text><text transform="translate(304.526 21.874)" class="st12 st6 st7">stash --include-untracked</text><circle class="st13" cx="400.9" cy="979.5" r="30"/><path class="st14" d="M400.2,1046v-36.5"/><path class="st15" d="M179.7,954.5h94v50h-94V954.5z"/><text transform="translate(206.072 985.716)" class="st5 st6 st7">HEAD</text><path class="st14" d="M337.1,979.5h-43.3"/><path class="st14" d="M331.1,988.2l8.7-8.7l-8.7-8.7"/><path class="st14" d="M400.6,926.8v-63.3"/><path class="st14" d="M391.9,920.8l8.7,8.7l8.7-8.7"/><circle class="st16" cx="400.9" cy="813.5" r="30"/><path class="st14" d="M400.6,760.8v-63.3"/><path class="st14" d="M391.9,754.8l8.7,8.7l8.7-8.7"/><circle class="st17" cx="400.9" cy="647.5" r="30"/><path class="st18" d="M139.7,621.6h134v50h-134V621.6z"/><text transform="translate(165.227 652.832)" class="st5 st6 st7">refs / stash</text><path class="st14" d="M337.1,646.6h-43.3"/><path class="st14" d="M331.1,655.3l8.7-8.7l-8.7-8.7"/><path class="st14" d="M366.5,683.9c-83.1,96.5-81.3,165.6-0.2,259.4"/><path class="st14" d="M354.3,943.3h12.3V931"/><text transform="translate(452.256 642.83)" class="st5 st6 st7">Tracked files</text><text transform="translate(449.674 818.97)" class="st5 st6 st7">Index</text><circle class="st19" cx="560.9" cy="813.5" r="30"/><text transform="translate(613.58 818.97)" class="st5 st6 st7">Untracked &amp;</text><text transform="translate(613.68 836.97)" class="st5 st6 st7">Ignored Files</text><path class="st14" d="M553.2,762.4C537.6,712,499.6,672,451.3,655.2"/><path class="st14" d="M552.7,864.4c-15.9,49.7-53.6,89-101.4,105.6"/><path class="st14" d="M455.9,959.3l-4.2,11.5l11.5,4.2"/><path class="st14" d="M543.2,758.4l10.4,6.5l6.5-10.4"/></svg>