<svg id="Layer_1" xmlns="http://www.w3.org/2000/svg" viewBox="0 0 800 1096.5"><style>.st0{fill:none;stroke:#414141;stroke-width:4;stroke-linecap:round;stroke-linejoin:round;} .st1{fill:none;stroke:#414141;stroke-width:4;stroke-linecap:round;stroke-linejoin:round;stroke-dasharray:6.0329,10.0548;} .st2{fill:none;stroke:#414141;stroke-width:4;stroke-linecap:round;stroke-linejoin:round;stroke-dasharray:6.1001,10.1669;} .st3{fill:#000100;} .st4{font-family:&apos;CircularPro-Book&apos;;} .st5{font-size:15px;} .st6{fill:none;stroke:#414141;stroke-width:4;stroke-linecap:round;stroke-linejoin:round;stroke-dasharray:5.977,9.9616;} .st7{fill:#B5E0F7;stroke:#404040;stroke-width:4;stroke-linejoin:round;stroke-miterlimit:10;} .st8{fill:none;stroke:#404040;stroke-width:4;stroke-linecap:round;stroke-linejoin:round;} .st9{fill:#B5E0F7;stroke:#404040;stroke-width:4;stroke-linecap:round;stroke-linejoin:round;stroke-miterlimit:10;} .st10{fill:#59ABDD;stroke:#404040;stroke-width:4;stroke-linejoin:round;stroke-miterlimit:10;} .st11{fill:#61C19B;stroke:#404040;stroke-width:4;stroke-linejoin:round;stroke-miterlimit:10;} .st12{fill:#61C19B;stroke:#404040;stroke-width:4;stroke-linecap:round;stroke-linejoin:round;stroke-miterlimit:10;} .st13{fill:#979797;} .st14{fill:#DADFE2;stroke:#404040;stroke-width:4;stroke-linejoin:round;stroke-miterlimit:10;}</style><path class="st0" d="M770 436L770 439 767 439"/><path class="st1" d="M756.9 439L38 439"/><path class="st0" d="M33 439L30 439 30 436"/><path class="st2" d="M30 425.9L30 268.3"/><path class="st0" d="M30 263.2L30 260.2 33 260.2"/><path class="st1" d="M43.1 260.2L762 260.2"/><path class="st0" d="M767 260.2L770 260.2 770 263.2"/><path class="st2" d="M770 273.4L770 430.9"/><text transform="translate(685.944 409.024)" class="st3 st4 st5">Index</text><text transform="translate(376.683 355.807)" class="st3 st4 st5">Empty</text><path class="st0" d="M770 1071.7L770 1074.7 767 1074.7"/><path class="st1" d="M756.9 1074.7L38 1074.7"/><path class="st0" d="M33 1074.7L30 1074.7 30 1071.7"/><path class="st6" d="M30 1061.8L30 477"/><path class="st0" d="M30 472L30 469 33 469"/><path class="st1" d="M43.1 469L762 469"/><path class="st0" d="M767 469L770 469 770 472"/><path class="st6" d="M770 482L770 1066.7"/><circle class="st7" cx="400.3" cy="889.5" r="30"/><path class="st8" d="M399.6,1074.7V919.5"/><path class="st9" d="M179.1,864.5h94v50h-94V864.5z"/><text transform="translate(205.486 895.716)" class="st3 st4 st5">HEAD</text><path class="st8" d="M336.5,889.5h-43.3"/><path class="st8" d="M330.5,898.2l8.7-8.7l-8.7-8.7"/><path class="st8" d="M400,836.8v-63.3"/><path class="st8" d="M391.3,830.8l8.7,8.7l8.7-8.7"/><circle class="st10" cx="400.3" cy="723.5" r="30"/><path class="st8" d="M400,670.8v-63.3"/><path class="st8" d="M391.3,664.8l8.7,8.7l8.7-8.7"/><circle class="st11" cx="400.3" cy="557.5" r="30"/><path class="st12" d="M139.1,531.6h134v50h-134V531.6z"/><text transform="translate(164.642 562.832)" class="st3 st4 st5">refs / stash</text><path class="st8" d="M336.5,556.6h-43.3"/><path class="st8" d="M330.5,565.3l8.7-8.7l-8.7-8.7"/><path class="st8" d="M365.9,593.9c-83.1,96.5-81.3,165.6-0.2,259.4"/><path class="st8" d="M353.7,853.3H366V841"/><text transform="translate(451.67 552.83)" class="st3 st4 st5">Tracked files</text><text transform="translate(449.09 728.97)" class="st3 st4 st5">Index</text><text transform="translate(351.378 21.874)" class="st13 st4 st5">git stash --all</text><path class="st0" d="M770 227.2L770 230.2 767 230.2"/><path class="st1" d="M756.9 230.2L38 230.2"/><path class="st0" d="M33 230.2L30 230.2 30 227.2"/><path class="st2" d="M30 217L30 59.4"/><path class="st0" d="M30 54.4L30 51.4 33 51.4"/><path class="st1" d="M43.1 51.4L762 51.4"/><path class="st0" d="M767 51.4L770 51.4 770 54.4"/><path class="st2" d="M770 64.5L770 222.1"/><text transform="translate(671.237 200.187)" class="st3 st4 st5">Worktree</text><text transform="translate(378.767 146.97)" class="st3 st4 st5">Clean</text><circle class="st14" cx="560.3" cy="723.5" r="30"/><text transform="translate(612.994 728.97)" class="st3 st4 st5">Untracked &amp;</text><text transform="translate(613.094 746.97)" class="st3 st4 st5">Ignored Files</text><path class="st8" d="M552.6,672.4C537,622,499,582,450.7,565.2"/><path class="st8" d="M552.1,774.4c-15.9,49.7-53.6,89-101.4,105.6"/><path class="st8" d="M455.3,869.3l-4.2,11.5l11.5,4.2"/><path class="st8" d="M542.6,668.4l10.4,6.5l6.5-10.4"/><text transform="translate(666.438 1047.65)" class="st3 st4 st5">Repository</text></svg>