<?xml version="1.0" encoding="utf-8"?>
<!-- Generator: Adobe Illustrator 24.2.1, SVG Export Plug-In . SVG Version: 6.00 Build 0)  -->
<svg version="1.1" id="Capa_1" xmlns="http://www.w3.org/2000/svg" xmlns:xlink="http://www.w3.org/1999/xlink" x="0px" y="0px"
	 viewBox="0 0 113.39 42.52" style="enable-background:new 0 0 113.39 42.52;" xml:space="preserve">
<g>
	<g>
		<path d="M98.12,27.02c0.62-0.01,1.19-0.12,1.7-0.34c0.52-0.22,0.97-0.53,1.35-0.92c0.38-0.39,0.68-0.84,0.89-1.35
			c0.21-0.51,0.32-1.05,0.32-1.63v-0.03c0-0.58-0.11-1.12-0.32-1.63c-0.21-0.51-0.5-0.96-0.88-1.34c-0.38-0.39-0.83-0.69-1.34-0.91
			c-0.51-0.22-1.08-0.33-1.69-0.34c-0.62,0.01-1.18,0.12-1.7,0.34c-0.52,0.22-0.97,0.53-1.35,0.92c-0.38,0.39-0.68,0.84-0.88,1.35
			c-0.21,0.51-0.32,1.05-0.32,1.63v0.03c0,0.58,0.11,1.12,0.32,1.63c0.21,0.51,0.5,0.96,0.88,1.34c0.38,0.39,0.82,0.69,1.34,0.91
			C96.94,26.91,97.51,27.02,98.12,27.02 M98.15,25.94c-0.43,0-0.83-0.09-1.19-0.25c-0.36-0.16-0.68-0.39-0.95-0.68
			c-0.27-0.29-0.48-0.62-0.63-1.01c-0.15-0.38-0.23-0.79-0.23-1.23v-0.03c0-0.43,0.07-0.84,0.22-1.21c0.14-0.38,0.35-0.71,0.61-1
			c0.26-0.29,0.58-0.52,0.94-0.68c0.36-0.16,0.77-0.25,1.21-0.25c0.43,0,0.83,0.09,1.2,0.25c0.37,0.16,0.69,0.39,0.96,0.68
			c0.27,0.29,0.49,0.63,0.64,1.01c0.15,0.38,0.23,0.79,0.23,1.23v0.03c0,0.43-0.07,0.84-0.22,1.21c-0.15,0.38-0.35,0.71-0.62,1
			c-0.26,0.29-0.58,0.51-0.94,0.67C99,25.85,98.59,25.93,98.15,25.94"/>
		<path d="M84.52,29.35h1.21v-4.08c0.16,0.23,0.34,0.45,0.54,0.66c0.2,0.21,0.43,0.39,0.69,0.55c0.25,0.16,0.54,0.29,0.85,0.38
			c0.31,0.09,0.66,0.14,1.04,0.14c0.4,0,0.78-0.06,1.16-0.19c0.38-0.12,0.73-0.3,1.06-0.54c0.33-0.24,0.62-0.53,0.87-0.87
			c0.25-0.34,0.45-0.73,0.59-1.18c0.14-0.44,0.21-0.93,0.22-1.46v-0.03c0-0.54-0.07-1.03-0.22-1.47c-0.14-0.44-0.34-0.83-0.59-1.18
			c-0.25-0.34-0.54-0.63-0.87-0.86C90.73,19,90.38,18.82,90,18.7c-0.38-0.12-0.76-0.18-1.15-0.18c-0.5,0.01-0.94,0.09-1.33,0.25
			c-0.39,0.17-0.73,0.38-1.02,0.66c-0.29,0.27-0.55,0.57-0.77,0.9v-1.64h-1.21V29.35z M88.63,25.92c-0.38,0-0.75-0.08-1.1-0.23
			c-0.35-0.15-0.66-0.36-0.94-0.64c-0.28-0.28-0.5-0.61-0.66-0.99c-0.16-0.39-0.24-0.81-0.25-1.29v-0.03c0-0.47,0.09-0.89,0.25-1.27
			c0.16-0.38,0.38-0.71,0.66-0.99c0.28-0.28,0.59-0.49,0.94-0.64c0.35-0.15,0.72-0.23,1.1-0.23c0.39,0,0.76,0.08,1.1,0.22
			c0.34,0.15,0.65,0.36,0.91,0.63c0.26,0.28,0.47,0.61,0.62,0.99c0.15,0.39,0.23,0.82,0.23,1.3v0.03c0,0.49-0.08,0.93-0.23,1.32
			c-0.15,0.39-0.35,0.72-0.62,0.98c-0.26,0.27-0.57,0.48-0.91,0.62C89.39,25.85,89.02,25.92,88.63,25.92"/>
		<path d="M78.56,27.02c0.46,0,0.87-0.06,1.24-0.17c0.36-0.11,0.69-0.25,0.97-0.43c0.28-0.18,0.51-0.38,0.7-0.59
			c0.19-0.22,0.34-0.43,0.44-0.65v1.65h0.5v-4.94c0-0.49-0.07-0.92-0.2-1.3c-0.13-0.38-0.33-0.7-0.58-0.96
			c-0.29-0.29-0.65-0.51-1.07-0.65c-0.42-0.14-0.91-0.22-1.45-0.22c-0.52,0-1.01,0.07-1.47,0.19c-0.45,0.12-0.9,0.29-1.34,0.51
			l0.19,0.44c0.39-0.2,0.8-0.36,1.22-0.48c0.42-0.12,0.88-0.18,1.36-0.18c0.59,0,1.1,0.1,1.52,0.29c0.42,0.2,0.75,0.49,0.97,0.89
			c0.23,0.4,0.34,0.89,0.34,1.49v0.54c-0.39-0.13-0.82-0.23-1.29-0.31c-0.47-0.08-0.99-0.12-1.54-0.13c-0.51,0-0.97,0.06-1.4,0.17
			c-0.43,0.11-0.8,0.27-1.11,0.49c-0.31,0.22-0.56,0.48-0.73,0.8c-0.17,0.32-0.26,0.68-0.26,1.1v0.03c0,0.4,0.09,0.75,0.25,1.06
			c0.17,0.3,0.39,0.55,0.68,0.76c0.28,0.2,0.6,0.36,0.96,0.46C77.8,26.97,78.17,27.02,78.56,27.02 M78.59,26.55
			c-0.33,0-0.65-0.04-0.95-0.13c-0.3-0.08-0.56-0.21-0.8-0.38c-0.23-0.17-0.42-0.37-0.55-0.62c-0.13-0.25-0.2-0.53-0.2-0.86v-0.03
			c0.01-0.44,0.13-0.81,0.38-1.11c0.25-0.3,0.6-0.54,1.04-0.7c0.44-0.16,0.96-0.24,1.54-0.24c0.59,0,1.12,0.04,1.59,0.13
			c0.47,0.08,0.89,0.19,1.28,0.31v0.98c0,0.36-0.08,0.69-0.25,1.01c-0.16,0.32-0.39,0.6-0.69,0.84c-0.3,0.24-0.65,0.44-1.05,0.57
			C79.52,26.48,79.07,26.55,78.59,26.55"/>
		<path d="M63.6,27.02c0.48,0,0.92-0.07,1.33-0.22c0.4-0.14,0.76-0.33,1.08-0.58c0.32-0.25,0.6-0.53,0.84-0.84l-0.38-0.3
			c-0.21,0.28-0.46,0.52-0.75,0.74c-0.29,0.22-0.61,0.4-0.96,0.52c-0.35,0.13-0.73,0.19-1.14,0.2c-0.45,0-0.87-0.08-1.27-0.24
			c-0.4-0.16-0.75-0.39-1.07-0.7c-0.31-0.3-0.56-0.67-0.75-1.1c-0.19-0.43-0.29-0.92-0.32-1.46h6.88v-0.17
			c0-0.43-0.05-0.84-0.15-1.25c-0.1-0.41-0.24-0.78-0.44-1.14c-0.2-0.35-0.44-0.66-0.73-0.93c-0.29-0.26-0.63-0.47-1.02-0.62
			c-0.39-0.15-0.82-0.23-1.3-0.23c-0.55,0-1.05,0.11-1.52,0.32c-0.46,0.21-0.86,0.5-1.2,0.87c-0.34,0.37-0.6,0.81-0.79,1.31
			c-0.19,0.5-0.28,1.04-0.29,1.63v0.03c0.01,0.64,0.11,1.21,0.31,1.72c0.2,0.51,0.49,0.95,0.85,1.31c0.36,0.36,0.78,0.64,1.25,0.83
			C62.56,26.92,63.06,27.02,63.6,27.02 M60.22,22.6c0.03-0.49,0.12-0.94,0.29-1.36c0.17-0.41,0.39-0.78,0.68-1.08
			c0.29-0.31,0.62-0.55,1-0.72c0.38-0.17,0.8-0.26,1.25-0.26c0.5,0,0.93,0.1,1.31,0.29c0.38,0.19,0.7,0.45,0.96,0.77
			c0.26,0.33,0.46,0.69,0.6,1.09c0.14,0.41,0.22,0.83,0.24,1.26H60.22z"/>
		<path d="M47.32,29.35h0.5v-4.68c0.13,0.33,0.31,0.63,0.53,0.92c0.22,0.28,0.48,0.53,0.77,0.75c0.3,0.21,0.63,0.38,1,0.5
			c0.37,0.12,0.77,0.18,1.21,0.18c0.54,0,1.04-0.1,1.52-0.31c0.47-0.2,0.89-0.49,1.25-0.86c0.36-0.37,0.64-0.81,0.84-1.31
			c0.2-0.5,0.31-1.06,0.31-1.66v-0.03c0-0.61-0.11-1.17-0.31-1.67c-0.2-0.51-0.49-0.94-0.84-1.31c-0.36-0.37-0.78-0.65-1.25-0.85
			c-0.47-0.2-0.98-0.3-1.52-0.31c-0.43,0-0.83,0.06-1.2,0.19c-0.37,0.12-0.7,0.29-1,0.51c-0.3,0.22-0.55,0.47-0.77,0.76
			c-0.22,0.29-0.4,0.6-0.54,0.93V18.9h-0.5V29.35z M51.29,26.53c-0.49,0-0.94-0.1-1.36-0.28c-0.42-0.18-0.79-0.44-1.11-0.77
			c-0.32-0.33-0.57-0.72-0.75-1.16c-0.18-0.44-0.27-0.92-0.27-1.44v-0.03c0-0.51,0.09-0.99,0.27-1.44c0.18-0.44,0.43-0.83,0.75-1.16
			c0.32-0.33,0.69-0.59,1.11-0.77c0.42-0.19,0.88-0.28,1.37-0.28c0.5,0,0.95,0.09,1.37,0.28c0.42,0.18,0.78,0.44,1.09,0.77
			c0.31,0.33,0.55,0.72,0.72,1.16c0.17,0.44,0.26,0.93,0.26,1.46v0.03c0,0.53-0.09,1.02-0.25,1.46c-0.17,0.44-0.4,0.83-0.71,1.15
			c-0.31,0.32-0.67,0.57-1.09,0.75C52.26,26.44,51.79,26.53,51.29,26.53"/>
	</g>
	<rect x="110.02" y="18.9" width="0.52" height="7.94"/>
	<g>
		<path d="M104.01,26.83h1.21v-3.24c0-0.61,0.09-1.15,0.25-1.62c0.17-0.46,0.4-0.86,0.69-1.17c0.29-0.31,0.64-0.55,1.03-0.71
			c0.39-0.16,0.81-0.24,1.25-0.24h0.09v-1.31c-0.52-0.02-0.99,0.07-1.41,0.26c-0.43,0.19-0.8,0.46-1.12,0.8s-0.59,0.75-0.78,1.2
			v-2.13h-1.21V26.83z"/>
	</g>
	<polygon points="67.91,26.83 74.6,26.83 74.6,26.38 68.66,26.38 74.57,19.18 74.57,18.9 68.11,18.9 68.11,19.36 73.83,19.36 
		67.91,26.55 	"/>
	<rect x="57.22" y="18.9" width="0.52" height="7.94"/>
	<g>
		<path d="M34.42,21.33c0.14,0.41,0.22,0.83,0.24,1.26h-6.33c0.03-0.49,0.12-0.94,0.29-1.36c0.17-0.41,0.39-0.78,0.68-1.08
			c0.29-0.31,0.62-0.55,1-0.72c0.38-0.17,0.8-0.26,1.25-0.26c0.5,0,0.93,0.1,1.31,0.29c0.38,0.19,0.7,0.45,0.96,0.77
			C34.08,20.56,34.27,20.93,34.42,21.33 M45.03,26.83v-4.74c0-0.72-0.13-1.33-0.38-1.84c-0.25-0.5-0.6-0.89-1.04-1.15
			c-0.45-0.27-0.98-0.4-1.58-0.4c-0.36,0-0.7,0.06-1,0.18c-0.31,0.12-0.58,0.28-0.82,0.47c-0.24,0.2-0.45,0.43-0.62,0.67
			c-0.17,0.25-0.31,0.5-0.41,0.77c-0.09-0.29-0.2-0.55-0.36-0.81c-0.15-0.25-0.35-0.47-0.57-0.67c-0.23-0.19-0.5-0.34-0.81-0.45
			c-0.31-0.11-0.66-0.17-1.06-0.17c-0.35,0-0.68,0.06-0.97,0.18c-0.29,0.12-0.56,0.27-0.78,0.46c-0.18,0.15-0.33,0.32-0.47,0.49
			c-0.08-0.09-0.17-0.18-0.26-0.27c-0.29-0.26-0.63-0.47-1.02-0.62c-0.39-0.15-0.82-0.23-1.3-0.23c-0.55,0-1.05,0.11-1.52,0.32
			c-0.46,0.21-0.86,0.5-1.2,0.87c-0.34,0.37-0.6,0.81-0.79,1.31c-0.19,0.5-0.28,1.04-0.29,1.63v0.03c0.01,0.64,0.11,1.21,0.31,1.72
			c0.2,0.51,0.49,0.95,0.85,1.31c0.36,0.36,0.78,0.64,1.25,0.83c0.48,0.19,0.98,0.29,1.52,0.29c0.48,0,0.92-0.07,1.33-0.22
			c0.4-0.14,0.76-0.33,1.08-0.58c0.32-0.25,0.6-0.53,0.84-0.85l-0.38-0.3c-0.21,0.28-0.46,0.52-0.75,0.74
			c-0.29,0.22-0.61,0.4-0.96,0.52c-0.35,0.13-0.73,0.19-1.14,0.2c-0.45,0-0.87-0.08-1.27-0.24c-0.4-0.16-0.75-0.39-1.07-0.7
			c-0.31-0.3-0.56-0.67-0.75-1.1c-0.19-0.43-0.29-0.92-0.32-1.46h6.88v-0.17c0-0.43-0.05-0.84-0.15-1.25
			c-0.1-0.41-0.24-0.78-0.44-1.14c-0.07-0.12-0.14-0.23-0.22-0.34c0.03-0.03,0.05-0.07,0.08-0.1c0.25-0.28,0.53-0.49,0.85-0.64
			c0.32-0.15,0.65-0.23,1-0.23c0.5,0,0.94,0.12,1.32,0.34c0.38,0.23,0.67,0.56,0.88,1c0.21,0.44,0.32,0.97,0.32,1.6v4.71h0.5V22.2
			c0-0.45,0.08-0.86,0.22-1.23c0.14-0.37,0.34-0.69,0.59-0.96c0.25-0.27,0.53-0.47,0.85-0.62c0.31-0.15,0.64-0.22,0.98-0.22
			c0.51,0,0.96,0.11,1.34,0.34c0.38,0.23,0.67,0.56,0.88,1c0.21,0.44,0.31,0.98,0.32,1.62v4.69H45.03z"/>
		<path d="M57.48,10.59c0.15,0,0.27,0.12,0.27,0.27c0,0.15-0.12,0.27-0.27,0.27c-0.15,0-0.27-0.12-0.27-0.27
			C57.21,10.71,57.33,10.59,57.48,10.59"/>
		<path d="M110.28,10.59c0.15,0,0.27,0.12,0.27,0.27c0,0.15-0.12,0.27-0.27,0.27c-0.15,0-0.27-0.12-0.27-0.27
			C110.01,10.71,110.13,10.59,110.28,10.59"/>
		<path d="M18.59,16.17c0.09,0.09,0.19,0.19,0.28,0.29c-1.19-0.85-2.63-1.36-4.19-1.36h0c-1.33,0-2.54,0.53-3.41,1.38
			c-0.88,0.86-1.42,2.04-1.42,3.34c0,0.88,0.35,1.67,0.91,2.25c0.56,0.58,1.34,0.94,2.2,0.94h0h0c0.59,0,1.13-0.24,1.52-0.62
			c0.39-0.38,0.64-0.91,0.64-1.5c0-0.41-0.16-0.79-0.43-1.06c-0.27-0.28-0.64-0.45-1.05-0.45h0c-0.3,0-0.58,0.12-0.78,0.32
			c-0.2,0.2-0.33,0.47-0.33,0.77h0l0,0c0,0.23,0.09,0.44,0.25,0.6c0.15,0.15,0.36,0.25,0.6,0.25c0.24,0,0.43-0.19,0.43-0.43
			c0-0.23-0.18-0.42-0.41-0.43c0-0.05,0.03-0.1,0.06-0.14c0.04-0.04,0.1-0.07,0.17-0.07h0c0.17,0,0.32,0.07,0.43,0.18
			c0.11,0.12,0.18,0.28,0.18,0.46c0,0.34-0.14,0.65-0.37,0.88c-0.23,0.23-0.56,0.37-0.92,0.37c-0.62,0-1.18-0.26-1.58-0.68
			c-0.41-0.42-0.66-1-0.66-1.65v0c0-1.06,0.44-2.03,1.16-2.72c0.72-0.7,1.71-1.13,2.81-1.13h0c1.78,0,3.39,0.74,4.55,1.93
			c1.17,1.2,1.89,2.85,1.89,4.68c0,0.04,0.01,0.08,0.02,0.12c-0.09,2.26-1.05,4.3-2.55,5.8c-1.58,1.58-3.76,2.56-6.17,2.56
			c-2.41,0-4.59-0.98-6.17-2.56c-1.58-1.58-2.56-3.76-2.56-6.17c0-2.41,0.98-4.59,2.56-6.17c1.58-1.58,3.76-2.56,6.17-2.56
			C14.83,13.61,17.02,14.59,18.59,16.17 M22.02,22.34c0-2.65-1.07-5.05-2.81-6.78c-1.74-1.74-4.13-2.81-6.78-2.81
			c-2.65,0-5.05,1.07-6.78,2.81s-2.81,4.13-2.81,6.78c0,2.65,1.07,5.05,2.81,6.78c1.74,1.74,4.13,2.81,6.78,2.81
			c2.65,0,5.05-1.07,6.78-2.81C20.94,27.38,22.02,24.98,22.02,22.34"/>
	</g>
</g>
</svg>
