<?xml version="1.0" encoding="utf-8"?>
<!-- Generator: Adobe Illustrator 25.2.3, SVG Export Plug-In . SVG Version: 6.00 Build 0)  -->
<svg version="1.1" id="Capa_1" xmlns="http://www.w3.org/2000/svg" xmlns:xlink="http://www.w3.org/1999/xlink" x="0px" y="0px"
	 viewBox="0 0 83.4 48.7" style="enable-background:new 0 0 83.4 48.7;" xml:space="preserve">
<style type="text/css">
	.st0{fill-rule:evenodd;clip-rule:evenodd;fill:#FFFFFF;}
	.st1{fill-rule:evenodd;clip-rule:evenodd;fill:#0071CE;}
	.st2{fill:#FFFFFF;}
</style>
<g>
	<g>
		<path class="st0" d="M4.8,4.7h4.2L8.7,6.5c0,0.3-0.1,0.5-0.3,0.6C8.2,7.2,8,7.2,7.8,7.2H5.3c-1.1,0-1.8,0.9-2.2,2.6
			c-0.2,0.9-0.3,1.8-0.3,2.8c0,0.8,0.2,1.3,0.5,1.5c0.2,0.2,0.6,0.3,1.1,0.3c0.2,0,0.3,0,0.4,0c1.1,0,1.9-0.1,2.3-0.2
			c0.4-0.1,0.6-0.4,0.8-0.8l-0.5,2.6c-0.1,0.6-0.4,0.9-1,0.9H2.8c-1.2,0-2-0.4-2.5-1.2c-0.2-0.5-0.4-1.1-0.4-2c0-0.9,0-1.7,0.1-2.5
			C0.3,9.5,0.7,8.1,1.3,7C2.2,5.4,3.3,4.7,4.8,4.7z"/>
		<path class="st0" d="M13.9,16.3l0.4-1.9l-0.9,1.9c-0.1,0.2-0.2,0.3-0.4,0.5c-0.2,0.2-0.3,0.2-0.5,0.2h-2.2c-0.5,0-0.9-0.2-1.2-0.6
			c-0.3-0.4-0.4-1-0.4-1.8c0-0.9,0.2-2,0.6-3.3c0.4-1.3,0.6-2,0.8-2.1c0.1-0.2,0.3-0.4,0.7-0.5c0.4-0.1,0.8-0.2,1.2-0.2H15
			c0.3,0,0.5,0,0.6-0.1c0.2-0.1,0.2-0.4,0.2-0.9c0-0.5-0.2-0.8-0.6-0.8h-3c-0.3,0-0.5-0.1-0.6-0.2c-0.1-0.2-0.2-0.3-0.1-0.5l0.2-1.4
			h5.2c0.6,0,1.1,0.2,1.4,0.5c0.3,0.3,0.5,0.7,0.5,1.3c0,0.3,0,0.5-0.1,0.8l-1.5,8c-0.1,0.4-0.1,0.7-0.1,0.9c0,0.3,0.1,0.6,0.2,0.7
			c0.1,0.1,0.2,0.2,0.3,0.2h-3c-0.1,0-0.3-0.1-0.4-0.2C13.9,16.6,13.9,16.5,13.9,16.3z M11.9,14.2h2.4l0.7-3.3h-2
			c-0.5,0-1,0.3-1.2,0.9c-0.2,0.5-0.3,1-0.3,1.6c0,0.2,0.1,0.4,0.2,0.6C11.7,14.1,11.8,14.2,11.9,14.2z"/>
		<path class="st0" d="M20.9,5.7c0-0.2,0-0.4-0.1-0.6c0-0.2-0.1-0.3-0.3-0.4H23c0.2,0,0.3,0.1,0.5,0.2c0.2,0.2,0.2,0.3,0.2,0.5
			l-0.1,0.8l0.6-1c0.1-0.2,0.2-0.3,0.2-0.3c0.2-0.2,0.4-0.3,0.7-0.3h2c0.5,0,0.9,0.2,1.2,0.6c0.3,0.4,0.5,0.8,0.5,1.4l0.7-1.3
			c0.2-0.4,0.5-0.6,0.9-0.6h1.7c0.5,0,1,0.2,1.3,0.6c0.4,0.4,0.5,0.9,0.5,1.5c0,0.2,0,0.4-0.1,0.6L32.3,16c0,0.2,0,0.3,0,0.6
			c0.1,0.2,0.2,0.3,0.4,0.4h-2.7c-0.2,0-0.3-0.1-0.5-0.2c-0.1-0.2-0.2-0.4-0.2-0.6L31,8.8c0.1-0.4,0.1-0.7,0.1-0.8
			c0-0.2-0.1-0.4-0.2-0.5c-0.2-0.1-0.4-0.2-0.8-0.2c-0.6,0-1,0.1-1.2,0.2c-0.2,0.2-0.4,0.5-0.5,0.9l-1.6,7.7c0,0.2,0,0.4,0.1,0.6
			c0.1,0.2,0.3,0.3,0.4,0.3h-2.8c-0.3,0-0.4-0.2-0.4-0.6c0-0.1,0-0.2,0-0.2l1.6-7.9c0-0.4,0-0.6-0.1-0.7c-0.1-0.2-0.5-0.3-1-0.3
			c-0.4,0-0.6,0-0.8,0.1c-0.3,0.1-0.6,0.4-0.6,0.8l-1.7,8c0,0.2,0,0.2,0,0.3c0,0.2,0.1,0.3,0.2,0.4c0.1,0.1,0.3,0.1,0.3,0.2h-2.7
			c-0.2,0-0.3-0.1-0.5-0.2c-0.1-0.1-0.2-0.4-0.2-0.7c0-0.1,0-0.1,0-0.2L20.9,5.7z"/>
		<path class="st0" d="M39,5.5l-0.4,1.8l1-2c0.1-0.2,0.2-0.4,0.4-0.5c0.1-0.1,0.4-0.1,0.6-0.1h1.6c0.7,0,1.2,0.2,1.6,0.7
			c0.4,0.5,0.6,1.1,0.6,1.9c0,0.2,0,0.4,0,0.5c-0.2,1.9-0.4,3.2-0.6,4c-0.3,1.5-0.8,2.7-1.4,3.5c-0.7,1-1.7,1.5-2.9,1.5h-2.9
			l-0.6,2.6c0,0.2,0,0.3,0.1,0.5c0.1,0.1,0.2,0.2,0.3,0.2h-2.4c-0.2,0-0.3-0.1-0.5-0.2c-0.2-0.2-0.2-0.4-0.2-0.6l2.9-13.4
			c0-0.1,0.1-0.3,0.1-0.4c0-0.2-0.1-0.4-0.2-0.6c-0.2-0.2-0.3-0.2-0.5-0.2h2.5c0.3,0,0.5,0.1,0.7,0.2C39,5,39.1,5.2,39,5.5z
			 M38.5,7.8l-1.4,6.5h1.4c0.2,0,0.3,0,0.4,0c0.5,0,1-0.3,1.3-0.8c0.6-0.9,1.1-2.4,1.4-4.7c0.1-0.4-0.1-0.7-0.4-1
			c-0.3-0.3-0.7-0.5-1.1-0.5c-0.3,0-0.6,0.1-1.1,0.2C38.8,7.7,38.6,7.8,38.5,7.8z"/>
		<path class="st0" d="M47,5.5c0.1-0.2,0-0.4-0.1-0.6c-0.1-0.2-0.3-0.2-0.4-0.2h3c0.1,0,0.2,0.1,0.3,0.3c0,0.2,0.1,0.3,0,0.5
			L48.2,13c-0.1,0.2-0.1,0.4-0.1,0.6c0,0.1,0,0.2,0,0.3c0,0.2,0.1,0.4,0.3,0.5c0.2,0.1,0.5,0.1,1.1,0.1c0.7,0,1.2-0.1,1.4-0.3
			c0.1-0.1,0.3-0.5,0.4-1l1.5-8c0-0.2,0-0.4-0.1-0.4c-0.1-0.1-0.2-0.1-0.4-0.1h2.9c0,0,0.1,0,0.1,0.1c0.1,0.2,0.2,0.5,0.2,0.6
			l-2,10.7c0,0.2,0,0.4,0.1,0.6c0.1,0.2,0.2,0.3,0.5,0.3h-3c-0.1,0-0.2-0.1-0.3-0.2c-0.1-0.1-0.1-0.3-0.1-0.4l0.2-0.8l-0.4,1
			c-0.1,0.3-0.4,0.4-0.9,0.4h-2.7c-0.5,0-0.8-0.1-1.1-0.4c-0.2-0.2-0.4-0.6-0.4-1.2c0-0.3,0-0.7,0.1-1.1L47,5.5z"/>
		<path class="st0" d="M60.2,4.7h4.6l-0.3,1.4c-0.1,0.3-0.3,0.5-0.8,0.5h-2.1c-0.6,0-1,0.1-1.2,0.3C60.1,7.1,60,7.6,60,8.3
			c0,0.5,0.7,0.9,2.1,1.3c1.4,0.4,2.1,1.2,2.1,2.5c0,1.6-0.3,2.8-0.9,3.7c-0.6,0.8-1.4,1.3-2.4,1.3h-5c-0.1,0-0.2-0.1-0.3-0.2
			c-0.2-0.2-0.2-0.5-0.2-0.7l0.5-2.1H56c-0.1,0.3,0,0.6,0.2,0.7c0.2,0.2,0.4,0.2,0.9,0.2c0.2,0,0.4,0,0.8,0c0.5,0,1.1,0,1.6-0.1
			c0.6,0,0.9-0.1,0.9-0.2c0.2,0,0.4-0.2,0.5-0.6c0.2-0.4,0.3-0.7,0.3-1.1c0.1-0.6-0.6-1-2-1.5c-1.4-0.4-2.1-1.1-2.1-1.9
			c0-1.4,0.3-2.6,0.8-3.6S59.3,4.7,60.2,4.7z"/>
		<path class="st1" d="M26.9,25.2c0-0.3-0.1-0.6-0.1-0.9c0,0.1,0,0,0.1-0.3c0-0.3,0.1-0.9,0.1-1.7c0.1-0.2,0.2-0.3,0.2-0.4l0.1-0.3
			c-0.1-0.2-0.2-0.3-0.2-0.4C27,21.1,27,21,27,20.9l0.3-2.5c0-0.2,0.1-0.5,0.3-0.7c0.2-0.3,0.5-0.6,0.8-0.9c0.3-0.3,0.5-0.5,0.8-0.7
			c0.3-0.2,0.5-0.3,0.7-0.4c0.3-0.1,0.5-0.2,0.6-0.3c0.1-0.1,0.1-0.1,0.2-0.1c0.2,0,0.3,0.1,0.4,0.3c0.1,0.2,0.1,0.6,0.1,1
			c0,0.2,0,0.6-0.1,1c-0.1,0.4-0.1,0.7-0.1,0.9c0,0.1,0,0.4,0,1L31,22c0,0.8,0.1,1.6,0.3,2.4c0.2,0.9,0.4,1.8,0.7,2.7
			c0.4,1.2,0.8,2.1,1.2,2.7c0.4,0.6,0.9,0.9,1.4,0.9c0.4,0,0.9-0.3,1.6-0.9c0.7-0.6,1.4-1.6,2.3-2.8c0.7-1,1.3-1.9,1.8-2.7
			c0.5-0.8,1-1.6,1.3-2.3c0.3-0.6,0.7-1.2,1.1-1.7c0.4-0.5,0.9-0.9,1.4-1.4l0.4-0.3c0.1-0.1,0.2-0.1,0.2-0.1c0.2,0,0.4,0.2,0.5,0.6
			c0.1,0.4,0.2,1,0.2,1.7c-0.1,0.7-0.1,1.4-0.2,2.1c-0.1,1.1-0.3,2.2-0.5,3.3c-0.2,1.1-0.5,2.3-0.8,3.6c-0.2,0.6-0.3,1.2-0.4,1.6
			c-0.1,0.5-0.2,0.9-0.2,1.2c0,0.2-0.1,0.4-0.1,0.7c0,0.3-0.1,0.6-0.1,1c-0.1,0.4-0.2,0.7-0.4,1.1c-0.1,0.3-0.2,0.6-0.3,1
			c-0.1,0.4-0.1,0.9-0.2,1.4c0,0.1,0,0.2,0,0.4l0,0.5c-0.3,1.4-0.5,2.9-0.8,4.2c0,0.1-0.1,0.3-0.2,0.5c-0.2,0.1-0.3,0.2-0.5,0.4
			c-0.2,0.2-0.4,0.4-0.6,0.8c-0.2,0.3-0.4,0.5-0.5,0.6c-0.1,0.1-0.2,0.2-0.3,0.2c-0.1,0-0.2,0-0.2-0.1c-0.1-0.1-0.1-0.2-0.1-0.4
			c0-0.1,0-0.2,0.1-0.3c0.2-0.5,0.3-1.2,0.4-2.1c0.1-0.9,0.2-2,0.3-3.4c0-0.3,0.1-1.1,0.3-2.3c0.2-1.2,0.4-3,0.8-5.2
			c0-0.4,0.1-0.8,0.2-1.3c0.1-0.5,0.2-1.1,0.3-1.8c0.1-0.3,0.1-0.6,0.2-0.9c0.1-0.2,0.1-0.4,0.1-0.5c0-0.1,0-0.2-0.1-0.3
			c0-0.1-0.1-0.1-0.2-0.1c-0.1,0-0.2,0.1-0.4,0.3c-0.2,0.2-0.4,0.6-0.7,1c-0.2,0.2-0.3,0.5-0.5,0.8c-0.2,0.3-0.3,0.5-0.5,0.8
			c-0.3,0.4-0.6,0.8-0.9,1.1l-1.3,1.6l-0.4,0.3c-0.2,0.1-0.4,0.3-0.6,0.4c-0.2,0.4-0.6,0.8-1.1,1.1c-0.5,0.3-0.9,0.5-1.3,0.5
			c-0.5,0-1-0.2-1.4-0.6c-0.4-0.4-0.9-1-1.3-1.7c-0.2-0.4-0.4-0.8-0.6-1.1c-0.2-0.4-0.4-0.8-0.6-1.1l-0.1,0
			c-0.1,0.1-0.2,0.7-0.3,1.7c-0.2,1.1-0.4,2.6-0.6,4.7c-0.3,2.1-0.5,3.8-0.6,5c-0.1,1.2-0.2,2-0.2,2.3c0,0.5-0.1,0.9-0.2,1.1
			c-0.1,0.3-0.3,0.4-0.6,0.5c-0.1,0-0.3,0.1-0.5,0.1c-0.2,0.1-0.5,0.1-0.8,0.2c-0.1,0-0.1,0-0.2-0.1c0,0-0.1-0.1-0.1-0.2l0.1-0.8
			l-0.2-0.8c0.1-0.4,0.1-0.9,0.2-1.3c0-0.8,0.1-1.7,0.1-2.4c0-0.2,0.1-0.4,0.1-0.8c0.1-0.4,0.1-0.6,0.1-0.8c0-0.1,0-0.2-0.1-0.4
			c0-0.2-0.1-0.3-0.1-0.4c0-0.8,0.1-1.9,0.3-3.5c0.2-1.5,0.3-2.7,0.3-3.5c0-0.3-0.1-0.7-0.1-1c0.1-0.5,0.2-1.1,0.3-1.9
			C26.6,27.1,26.7,26.2,26.9,25.2z M57.4,25.6c0-0.2-0.1-0.5-0.1-0.6c0.1-0.4,0.1-0.8,0.2-1.2c0.1-0.4,0.1-0.8,0.2-1.2
			c0.1-0.6,0.3-1.1,0.4-1.5c0.2-0.4,0.4-0.6,0.6-0.7l1.1-0.6c0.1-0.1,0.3-0.1,0.5-0.2c0.1,0,0.2,0.1,0.3,0.2
			c0.1,0.1,0.1,0.3,0.1,0.6c0,0.1,0,0.4-0.1,0.9l-0.2,2c0,0.2,0,0.4-0.1,0.6c0,0.2,0,0.4-0.1,0.6c0,0.1,0,0.3-0.1,0.5
			c-0.1,0.2-0.2,0.4-0.3,0.7c0.1,0.3-0.1,1-0.4,2.1c-0.3,1.1-0.8,2.6-1.4,4.4c-0.5,1.5-1,2.9-1.4,4.1c-0.4,1.2-0.8,2.1-1.1,2.9
			c-0.2,0.4-0.3,0.8-0.6,1.3c-0.2,0.5-0.4,0.9-0.6,1.4c0.1,0.3,0.2,0.6,0.3,0.8c0,0.2,0,0.3-0.1,0.4c-0.2,0.2-0.4,0.5-0.6,0.9
			c-0.2,0.4-0.5,0.8-0.9,1.2c-0.2,0.1-0.5,0.3-0.7,0.4c-0.2,0.3-0.3,0.5-0.4,0.7c-0.2,0.2-0.4,0.3-0.6,0.4c-0.2,0.1-0.4,0.1-0.5,0.1
			c-0.3,0-0.6-0.2-0.8-0.5c-0.3-0.3-0.4-0.7-0.4-1c0-0.2,0.1-0.5,0.4-0.9c0.3-0.4,0.4-0.6,0.5-0.7l-0.1-0.2l-0.2-0.3
			c0-0.4-0.1-0.7-0.2-1c-0.1-0.3-0.2-0.6-0.3-0.8c-0.2-0.4-0.4-0.9-0.6-1.6s-0.3-1.3-0.5-2.1c-0.1-0.4-0.1-0.7-0.1-0.9
			c0-0.2,0-0.4,0-0.4c0-0.1-0.1-0.2-0.2-0.4c-0.1-0.2-0.1-0.4-0.2-0.6l-0.2-1.8c-0.1-0.7-0.2-1.5-0.3-2.5c0-0.1,0-0.2,0-0.4
			c0-0.2-0.1-0.3-0.1-0.6c-0.1-0.2-0.1-0.4-0.1-0.6c0-0.2,0-0.3,0-0.4c0-0.4,0-0.8,0-1.2c-0.1-0.3-0.1-0.5-0.1-0.6l0.1-0.8
			c-0.1-0.2-0.2-0.4-0.3-0.7c-0.1-0.3-0.1-0.6-0.1-1c0-0.1,0-0.3,0.1-0.4c0-0.1,0.1-0.2,0.1-0.4C47,23.7,47,23.5,47,23.2
			c0-0.2-0.1-0.5-0.1-0.8c-0.1-0.2-0.2-0.4-0.3-0.6c-0.1-0.2-0.1-0.4,0-0.5l0.1-0.9c0-0.2-0.1-0.4-0.1-0.5c0.1-0.9,0.2-1.5,0.3-2
			c0.1-0.5,0.2-0.8,0.2-1c0.2-0.5,0.4-0.9,0.7-1.2c0.3-0.3,0.7-0.5,1.2-0.6c0.2-0.1,0.3-0.3,0.4-0.3c0.1-0.1,0.2-0.1,0.3-0.1
			c0.1,0,0.2,0.1,0.4,0.2c0.1,0.1,0.2,0.4,0.3,0.6c0.1,0.2,0.1,0.5,0.1,0.7c0,0.2,0,0.4,0,0.6c0,0.5-0.1,1.1-0.1,1.8
			c0,0.7-0.1,1.4-0.1,2.3c0,0.1-0.1,0.3-0.2,0.5c-0.1,0.2-0.1,0.4-0.1,0.5c0,0.1,0,0.4,0.1,0.7c0.1,0.3,0.1,0.5,0.1,0.7
			c0,0.1,0,0.2,0,0.5c0,0.2-0.1,0.7-0.1,1.3c0,0.3,0.1,0.7,0.2,1c0,0.2,0,0.4-0.1,0.8c0,0.4-0.1,0.6-0.1,0.8c0,0.1,0,0.2,0,0.2
			c0,0.1,0.1,0.2,0.1,0.6c0,0.3,0,0.7,0.1,1.1l0.1,1.4l0.2,1.8c0.1,0.7,0.2,1.6,0.3,2.5l0,0.7c0,0.1,0,0.2,0.1,0.4
			c0,0.1,0.1,0.3,0.2,0.4l0.2,1.2c0.1,0.4,0.2,0.9,0.2,1.4c0,0.2,0.1,0.3,0.1,0.4c0.1,0.1,0.1,0.1,0.2,0.1c0.3-0.3,0.5-0.6,0.6-1
			c0.1-0.2,0.2-0.4,0.4-0.9c0.2-0.4,0.4-1,0.6-1.7c0.1-0.2,0.1-0.4,0.3-0.7l0.4-0.9c0.2-0.3,0.4-0.8,0.6-1.6c0.3-0.8,0.6-1.7,1-3
			c0.3-1,0.6-1.9,0.8-2.6c0.2-0.7,0.4-1.3,0.5-1.6L57.4,25.6z M64,21.9c0-0.2-0.2-0.5-0.3-0.8l-0.6-1.3c-0.3-0.5-0.5-0.8-0.6-1.1
			c-0.1-0.3-0.2-0.4-0.2-0.5c0-0.4,0.4-1.1,1.1-2c0.8-0.9,1.3-1.4,1.7-1.4c0.3,0.1,0.4,0.3,0.6,0.4h0.5c0.3,0.2,0.6,0.4,1,0.6
			c0.3,0.2,0.7,0.3,1,0.5c0.9,0.5,1.5,0.9,1.8,1.3c0.2,0.3,0.6,0.7,1.1,1.1c0.1,0.1,0.2,0.3,0.4,0.6c0.2,0.3,0.5,0.6,0.9,1
			c0,0,0.1,0.1,0.2,0.2l0.2,0.4c0.5,0.7,0.9,1.4,1.3,2c0.3,0.6,0.6,1.2,0.8,1.7c0.2,0.6,0.4,1.3,0.5,2c0.1,0.7,0.2,1.5,0.2,2.4
			c0,1.6-0.2,2.9-0.5,4c-0.4,1.1-0.9,1.9-1.6,2.4c-0.1,0.1-0.2,0.2-0.3,0.2s-0.3,0.2-0.4,0.3l-0.2,0.3c-0.2,0.3-0.5,0.6-1,0.9
			c-0.5,0.3-1.1,0.6-1.8,1c-1,0.5-2,1-3.1,1.5c-0.3,0.2-0.6,0.3-0.8,0.4c-0.2,0.1-0.4,0.2-0.5,0.2c-0.3,0-0.5,0-0.6,0.1
			c-0.1,0.1-0.1,0.6-0.2,1.7L64.2,44c0,0.2,0.1,0.5,0.2,0.8c0.1,0.3,0.3,0.7,0.6,1c-0.1,0.3-0.2,0.6-0.4,0.8
			c-0.1,0.3-0.3,0.6-0.5,0.9c-0.2,0.4-0.4,0.7-0.6,0.9c-0.2,0.2-0.4,0.3-0.6,0.3c-0.4,0-0.7-0.2-0.8-0.7c-0.2-0.5-0.3-1.2-0.3-2.2
			c0-0.3,0-0.7,0.1-1.2c0.1-0.5,0.2-1.1,0.4-1.8l-0.1-1.2c-0.2-0.1-0.3-0.2-0.4-0.3c-0.1-0.1-0.3-0.2-0.4-0.3
			c-0.2-0.1-0.4-0.2-0.4-0.4c-0.1-0.1-0.1-0.3-0.1-0.4c0-0.2,0.3-0.4,0.8-0.8c0.6-0.3,0.8-0.8,0.8-1.3c0-0.2,0-0.4-0.1-0.7
			c-0.1-0.3-0.1-0.5-0.1-0.7c0.1-0.8,0.2-1.7,0.4-2.5c0-0.1,0.1-0.3,0.1-0.8c0-0.4,0.1-1,0.1-1.8c0-0.2,0.1-0.5,0.2-0.9
			c0.1-0.4,0.1-0.8,0.2-1.3L63,28.7L64,21.9z M65.5,19.4c-0.1,0-0.1,0-0.1,0.1c0,0,0,0.1,0,0.2c1.4,1.7,2.1,3,2.1,3.9
			c0,0.3-0.2,1.4-0.7,3.3c-0.5,1.9-0.8,3.1-0.9,3.5l0.1,0.9c-0.3,1.4-0.6,2.7-0.7,3.7c-0.2,1-0.2,1.8-0.2,2.5c0,0.2,0,0.3,0.1,0.3
			c0.1,0.1,0.1,0.1,0.2,0.1c0.1,0,0.3-0.1,0.6-0.2c0.3-0.1,0.7-0.3,1.2-0.7c0.3-0.2,0.6-0.4,0.9-0.6c0.3-0.2,0.6-0.3,0.9-0.5
			c0.1-0.1,0.3-0.2,0.4-0.3c0.2-0.1,0.4-0.3,0.6-0.5c0.3-0.3,0.5-0.5,0.7-0.6c0.2-0.2,0.3-0.3,0.3-0.3c0.5-0.4,0.9-1,1.1-1.6
			c0.3-0.6,0.4-1.4,0.4-2.3c0-0.5-0.1-1.1-0.2-1.6c-0.1-0.5-0.2-1.1-0.4-1.7l0-0.5c0-0.1-0.1-0.2-0.1-0.2L71.4,26
			c-0.1-0.1-0.1-0.2-0.2-0.3c-0.1-0.1-0.2-0.3-0.2-0.6c-0.2-0.4-0.5-1-1-1.6c-0.5-0.7-1.1-1.4-2-2.3c-0.1-0.1-0.2-0.2-0.3-0.4
			l-0.4-0.4c-0.2-0.1-0.5-0.3-0.8-0.4C66.2,19.8,65.8,19.6,65.5,19.4z"/>
	</g>
	<g>
		<path class="st2" d="M69.7,46.5c0-0.5,0.3-0.9,0.8-0.9c0.5,0,0.8,0.4,0.8,0.9c0,0.5-0.3,0.9-0.8,0.9C70.1,47.4,69.7,47,69.7,46.5z
			"/>
		<path class="st2" d="M73.4,44.1c0,1.6,1.1,2.3,2.3,2.3c0.9,0,1.4-0.2,1.8-0.3l0.2,0.9c-0.4,0.2-1.2,0.4-2.2,0.4
			c-2,0-3.3-1.3-3.3-3.4c0-2,1.2-3.6,3.1-3.6c2.2,0,2.7,1.9,2.7,3.1c0,0.2,0,0.4,0,0.6H73.4z M77,43.2c0-0.8-0.3-2-1.7-2
			c-1.2,0-1.8,1.1-1.9,2H77z"/>
		<path class="st2" d="M79.3,46c0.4,0.2,1,0.5,1.6,0.5c0.9,0,1.3-0.4,1.3-1c0-0.6-0.3-0.9-1.2-1.2c-1.2-0.4-1.8-1.1-1.8-1.9
			c0-1.1,0.9-2,2.3-2c0.7,0,1.3,0.2,1.6,0.4l-0.3,0.9c-0.3-0.2-0.7-0.4-1.4-0.4c-0.7,0-1.1,0.4-1.1,0.9c0,0.5,0.4,0.8,1.3,1.1
			c1.2,0.4,1.7,1,1.7,2c0,1.2-0.9,2-2.5,2c-0.7,0-1.4-0.2-1.9-0.5L79.3,46z"/>
	</g>
</g>
</svg>
