<svg width="66" height="66" fill="none" xmlns="http://www.w3.org/2000/svg"><rect x=".8" y=".8" width="64.4" height="64.4" rx="21.6" stroke="#000" stroke-opacity=".03" stroke-width="1.6"/><path fill-rule="evenodd" clip-rule="evenodd" d="M6 22.221a8.024 8.024 0 014.223-7.07l19-10.201a7.982 7.982 0 017.553 0l19 10.2A8.024 8.024 0 0160 22.221v21.558a8.024 8.024 0 01-4.224 7.07l-19 10.201a7.982 7.982 0 01-7.553 0l-19-10.2A8.024 8.024 0 016 43.779V22.221z" fill="url(#paint0_radial_746_28710)"/><path fill-rule="evenodd" clip-rule="evenodd" d="M9 23.313a7.218 7.218 0 013.779-6.345l16.78-9.095a7.222 7.222 0 016.882 0l16.78 9.095A7.218 7.218 0 0157 23.313v19.374a7.218 7.218 0 01-3.779 6.345l-16.78 9.095a7.222 7.222 0 01-6.882 0l-16.78-9.095A7.218 7.218 0 019 42.687V23.313z" fill="url(#paint1_radial_746_28710)"/><path fill-rule="evenodd" clip-rule="evenodd" d="M17.135 21.248c1-.067 3.035.18 4.441.668a6.5 6.5 0 00-1.858 4.21 6.55 6.55 0 00.57 3.083 6.53 6.53 0 01-.416.312c-1.336.909-2.951.83-3.608-.175-.327-.501-.354-1.138-.134-1.763-.455-.227-.8-.585-.952-1.048-.154-.464-.093-.961.134-1.425-.546-.36-.902-.882-.94-1.484-.075-1.206 1.162-2.27 2.763-2.378zM49.004 21.358c1.6.133 2.82 1.217 2.725 2.422-.047.601-.412 1.118-.963 1.47.22.466.272.965.11 1.425-.16.461-.509.814-.968 1.034.21.628.173 1.264-.163 1.76-.672.995-2.288 1.047-3.61.117a5.344 5.344 0 01-.236-.177 8.856 8.856 0 00.445-3.215c-.07-1.706-.587-3.24-1.376-4.365 1.374-.378 3.132-.546 4.036-.471zM33.435 27.17s3.453 5.242 6.1 3.788c.114.53.325 1.03.611 1.475-1.759 1.316-4.076 2.115-6.614 2.115-2.94 0-5.585-1.073-7.412-2.78 1.05-1.481 2.173-3.649 2.977-5.31 1.384 1.117 3 1.81 4.338.712zm.097-9.462c5.263 0 9.574 3.435 9.955 7.791l-.21.022c-1.132-2.365-3.196-4.449-6.514-5.087-6.218-1.194-9.471 1.258-10.459 2.202l-.163.163c-.053.055-.093.1-.121.132-1.1 1.002-1.918 2.272-2.462 3.582l-.008-.385c0-4.65 4.47-8.42 9.982-8.42z" fill="#87BDF3"/><path fill-rule="evenodd" clip-rule="evenodd" d="M25.56 19.844c.397-.46 3.63-3.898 10.747-2.52 7.966 1.542 8.705 11.482 6.655 13.573-2.05 2.09-3.327-3.393-3.327-3.393-2.69 2.673-6.655-3.394-6.655-3.394-1.34 1.108-2.955.409-4.34-.714-1.434 2.987-3.889 7.6-5.107 7.003-2.129-1.044-1.586-7.138 1.942-10.479l.085-.076z" fill="#87BDF3"/><path fill-rule="evenodd" clip-rule="evenodd" d="M25.56 21.14c.397-.461 3.63-3.899 10.747-2.52 7.966 1.542 8.705 11.481 6.655 13.572-2.05 2.09-3.327-3.393-3.327-3.393-2.155 2.381-5.767-3.517-5.767-3.517-1.442 1.193-3.407.318-5.069-.924-1.404 2.96-4.001 7.957-5.266 7.336-2.129-1.043-1.586-7.137 1.942-10.478l.085-.076z" fill="#87BDF3"/><mask id="a" style="mask-type:alpha" maskUnits="userSpaceOnUse" x="24" y="34" width="18" height="15"><path fill-rule="evenodd" clip-rule="evenodd" d="M26.913 34.064c-1.407 1.084-2.266 2.533-2.266 4.126 0 3.358 3.82 9.845 8.531 9.845 4.712 0 8.532-6.487 8.532-9.845 0-1.478-.74-2.834-1.972-3.887-1.708 1.158-3.88 1.85-6.242 1.85-2.522 0-4.825-.788-6.583-2.09z" fill="#87BDF3"/></mask><g mask="url(#a)" fill="#87BDF3"><ellipse rx="3.864" ry="2.541" transform="scale(-1 1) rotate(15 -150.928 -124.421)"/><ellipse cx="29.037" cy="34.824" rx="3.864" ry="2.541" transform="rotate(15 29.037 34.824)"/></g><path fill-rule="evenodd" clip-rule="evenodd" d="M40.818 36.982c.601.83.94 1.772.94 2.77 0 3.357-3.841 9.844-8.58 9.844-4.738 0-8.58-6.487-8.58-9.844 0-1.005.345-1.954.954-2.789.506.819 1.522 1.537 2.8 1.877 1.913.51 3.745-.006 4.303-1.154a12.152 12.152 0 001.086.026c.573 1.13 2.39 1.634 4.29 1.128 1.267-.338 2.277-1.047 2.787-1.858z" fill="#87BDF3"/><defs><radialGradient id="paint0_radial_746_28710" cx="0" cy="0" r="1" gradientUnits="userSpaceOnUse" gradientTransform="rotate(52.666 -.298 25.93) scale(53.5896 48.1998)"><stop stop-color="#6CA7E7"/><stop offset="1" stop-color="#345385"/></radialGradient><radialGradient id="paint1_radial_746_28710" cx="0" cy="0" r="1" gradientUnits="userSpaceOnUse" gradientTransform="matrix(0 53.9852 -48 0 33 6.007)"><stop stop-color="#263A5E"/><stop offset="1" stop-color="#0C1321"/></radialGradient></defs></svg>