<svg width="66" height="66" fill="none" xmlns="http://www.w3.org/2000/svg"><path fill-rule="evenodd" clip-rule="evenodd" d="M6 22.221a8.024 8.024 0 014.223-7.07l19-10.201a7.982 7.982 0 017.553 0l19 10.2A8.024 8.024 0 0160 22.221v21.558a8.024 8.024 0 01-4.224 7.07l-19 10.201a7.982 7.982 0 01-7.553 0l-19-10.2A8.024 8.024 0 016 43.779V22.221z" fill="url(#paint0_radial_755_27296)"/><path fill-rule="evenodd" clip-rule="evenodd" d="M9 23.313a7.218 7.218 0 013.779-6.345l16.78-9.095a7.222 7.222 0 016.882 0l16.78 9.095A7.218 7.218 0 0157 23.313v19.374a7.218 7.218 0 01-3.779 6.345l-16.78 9.095a7.222 7.222 0 01-6.882 0l-16.78-9.095A7.218 7.218 0 019 42.687V23.313z" fill="url(#paint1_radial_755_27296)"/><path d="M32.675 18.652l14.159 6.193-1.794 15.24-4.186-.493 1.428-12.139-11.296-4.94 1.689-3.861z" fill="url(#paint2_linear_755_27296)"/><path opacity=".7" d="M25.294 22.913l14.16 6.193-1.794 15.24-4.186-.493 1.429-12.138-11.298-4.94 1.69-3.862z" fill="url(#paint3_linear_755_27296)"/><path opacity=".4" d="M17.914 27.174l14.159 6.194-1.794 15.239-4.186-.493 1.428-12.139-11.297-4.939 1.69-3.862z" fill="url(#paint4_linear_755_27296)"/><defs><linearGradient id="paint2_linear_755_27296" x1="40.047" y1="19.37" x2="31.558" y2="27.474" gradientUnits="userSpaceOnUse"><stop stop-color="#8FC7FD"/><stop offset="1" stop-color="#5C87BE"/></linearGradient><linearGradient id="paint3_linear_755_27296" x1="32.666" y1="23.631" x2="24.178" y2="31.735" gradientUnits="userSpaceOnUse"><stop stop-color="#8FC7FD"/><stop offset="1" stop-color="#5C87BE"/></linearGradient><linearGradient id="paint4_linear_755_27296" x1="25.286" y1="27.892" x2="16.797" y2="35.996" gradientUnits="userSpaceOnUse"><stop stop-color="#8FC7FD"/><stop offset="1" stop-color="#5C87BE"/></linearGradient><radialGradient id="paint0_radial_755_27296" cx="0" cy="0" r="1" gradientUnits="userSpaceOnUse" gradientTransform="rotate(52.666 -.298 25.93) scale(53.5896 48.1998)"><stop stop-color="#6CA7E7"/><stop offset="1" stop-color="#345385"/></radialGradient><radialGradient id="paint1_radial_755_27296" cx="0" cy="0" r="1" gradientUnits="userSpaceOnUse" gradientTransform="matrix(0 53.9852 -48 0 33 6.007)"><stop stop-color="#263A5E"/><stop offset="1" stop-color="#0C1321"/></radialGradient></defs></svg>