<svg width="66" height="66" fill="none" xmlns="http://www.w3.org/2000/svg"><rect x=".8" y=".8" width="64.4" height="64.4" rx="21.6" stroke="#000" stroke-opacity=".03" stroke-width="1.6"/><path fill-rule="evenodd" clip-rule="evenodd" d="M6 22.221a8.024 8.024 0 014.223-7.07l19-10.201a7.982 7.982 0 017.553 0l19 10.2A8.024 8.024 0 0160 22.221v21.558a8.024 8.024 0 01-4.224 7.07l-19 10.201a7.982 7.982 0 01-7.553 0l-19-10.2A8.024 8.024 0 016 43.779V22.221z" fill="url(#paint0_radial_746_28706)"/><path fill-rule="evenodd" clip-rule="evenodd" d="M9 23.313a7.218 7.218 0 013.779-6.345l16.78-9.095a7.222 7.222 0 016.882 0l16.78 9.095A7.218 7.218 0 0157 23.313v19.374a7.218 7.218 0 01-3.779 6.345l-16.78 9.095a7.222 7.222 0 01-6.882 0l-16.78-9.095A7.218 7.218 0 019 42.687V23.313z" fill="url(#paint1_radial_746_28706)"/><path fill-rule="evenodd" clip-rule="evenodd" d="M46.482 17.033c-15.58 7.989-22.826 9.636-23.917 21.88 2.08-2.935 10.116-8.836 9.401-7.943-.432.54-.966.994-1.455 1.507a122.961 122.961 0 00-.97 1.029c-4.895 4.59-8.445 9.53-10.487 14.082a.617.617 0 001.125.505c.727-1.62 2.563-4.976 3.512-6.439 5.64-.144 12.465-3.913 15.091-5.828 2.626-1.916-1.043-.73-.658-1.111.44-.435 1.27-.719 3.015-2.009 1.746-1.29 2.247-2.104 3.095-3.676a.62.62 0 00-.014-.608.62.62 0 00-.53-.3h-2.282c2.528-1.498 4.084-3.097 4.668-4.797.878-2.55 1.022-3.05 1.022-5.675 0-.34-.308-.774-.616-.617z" fill="url(#paint2_linear_746_28706)"/><defs><radialGradient id="paint0_radial_746_28706" cx="0" cy="0" r="1" gradientUnits="userSpaceOnUse" gradientTransform="rotate(52.666 -.298 25.93) scale(53.5896 48.1998)"><stop stop-color="#6CA7E7"/><stop offset="1" stop-color="#345385"/></radialGradient><radialGradient id="paint1_radial_746_28706" cx="0" cy="0" r="1" gradientUnits="userSpaceOnUse" gradientTransform="matrix(0 53.9852 -48 0 33 6.007)"><stop stop-color="#263A5E"/><stop offset="1" stop-color="#0C1321"/></radialGradient><linearGradient id="paint2_linear_746_28706" x1="23.892" y1="24.864" x2="36.494" y2="48.354" gradientUnits="userSpaceOnUse"><stop stop-color="#8FC7FD"/><stop offset="1" stop-color="#5C87BE"/></linearGradient></defs></svg>