<svg width="66" height="66" fill="none" xmlns="http://www.w3.org/2000/svg"><rect x=".8" y=".8" width="64.4" height="64.4" rx="21.6" stroke="#000" stroke-opacity=".03" stroke-width="1.6"/><path fill-rule="evenodd" clip-rule="evenodd" d="M6 22.221a8.024 8.024 0 014.223-7.07l19-10.201a7.982 7.982 0 017.553 0l19 10.2A8.024 8.024 0 0160 22.221v21.558a8.024 8.024 0 01-4.224 7.07l-19 10.201a7.982 7.982 0 01-7.553 0l-19-10.2A8.024 8.024 0 016 43.779V22.221z" fill="url(#paint0_radial_746_28705)"/><path fill-rule="evenodd" clip-rule="evenodd" d="M9 23.313a7.218 7.218 0 013.779-6.345l16.78-9.095a7.222 7.222 0 016.882 0l16.78 9.095A7.218 7.218 0 0157 23.313v19.374a7.218 7.218 0 01-3.779 6.345l-16.78 9.095a7.222 7.222 0 01-6.882 0l-16.78-9.095A7.218 7.218 0 019 42.687V23.313z" fill="url(#paint1_radial_746_28705)"/><path fill-rule="evenodd" clip-rule="evenodd" d="M50.794 43.998v2.46h-36.27v-2.46h36.27zm-1.696-3.475v2.46H16.22v-2.46h32.877zM23.857 26.988v2.05h-1.06v8.409h1.06v2.05H18.13v-2.05h1.06v-8.409h-1.06v-2.05h5.727zm6.787 0v2.05h-1.06v8.409h1.06v2.05h-5.727v-2.05h1.06v-8.409h-1.06v-2.05h5.727zm16.545 0v2.05h-1.06v8.409h1.06v2.05h-5.727v-2.05h1.06v-8.409h-1.06v-2.05h5.727zm-6.788 0v2.05h-1.06v8.409h1.06v2.05h-5.727v-2.05h1.06v-8.409h-1.06v-2.05h5.727zM32.751 13L52 25.191l-.648.972-18.616-11.78-18.617 11.78-.647-.972L32.752 13zm-.025 2.253l16.628 10.43H16.097l16.629-10.43zm.01 4.844a2.028 2.028 0 100 4.056 2.028 2.028 0 000-4.056z" fill="url(#paint2_linear_746_28705)"/><defs><radialGradient id="paint0_radial_746_28705" cx="0" cy="0" r="1" gradientUnits="userSpaceOnUse" gradientTransform="rotate(52.666 -.298 25.93) scale(53.5896 48.1998)"><stop stop-color="#6CA7E7"/><stop offset="1" stop-color="#345385"/></radialGradient><radialGradient id="paint1_radial_746_28705" cx="0" cy="0" r="1" gradientUnits="userSpaceOnUse" gradientTransform="matrix(0 53.9852 -48 0 33 6.007)"><stop stop-color="#263A5E"/><stop offset="1" stop-color="#0C1321"/></radialGradient><linearGradient id="paint2_linear_746_28705" x1="20.18" y1="21.365" x2="31.593" y2="48.791" gradientUnits="userSpaceOnUse"><stop stop-color="#8FC7FD"/><stop offset="1" stop-color="#5C87BE"/></linearGradient></defs></svg>