<svg width="66" height="66" fill="none" xmlns="http://www.w3.org/2000/svg"><rect x=".8" y=".8" width="64.4" height="64.4" rx="21.6" stroke="#000" stroke-opacity=".03" stroke-width="1.6"/><path fill-rule="evenodd" clip-rule="evenodd" d="M6 22.221a8.024 8.024 0 014.223-7.07l19-10.201a7.982 7.982 0 017.553 0l19 10.2A8.024 8.024 0 0160 22.221v21.558a8.024 8.024 0 01-4.224 7.07l-19 10.201a7.982 7.982 0 01-7.553 0l-19-10.2A8.024 8.024 0 016 43.779V22.221z" fill="url(#paint0_radial_746_28708)"/><path fill-rule="evenodd" clip-rule="evenodd" d="M9 23.313a7.218 7.218 0 013.779-6.345l16.78-9.095a7.222 7.222 0 016.882 0l16.78 9.095A7.218 7.218 0 0157 23.313v19.374a7.218 7.218 0 01-3.779 6.345l-16.78 9.095a7.222 7.222 0 01-6.882 0l-16.78-9.095A7.218 7.218 0 019 42.687V23.313z" fill="url(#paint1_radial_746_28708)"/><path fill-rule="evenodd" clip-rule="evenodd" d="M32.738 17.998l1.067.393a.102.102 0 010 .192l-1.067.394c-.864.318-1.545 1-1.864 1.863l-.394 1.068a.102.102 0 01-.191 0l-.394-1.068a3.147 3.147 0 00-1.864-1.863l-1.067-.394a.102.102 0 010-.192l1.067-.393c.864-.319 1.546-1 1.864-1.864l.394-1.067a.102.102 0 01.191 0l.394 1.067c.319.864 1 1.545 1.864 1.864zm11.888 13.03l-.59-1.6a4.72 4.72 0 00-2.797-2.797l-1.6-.59a.153.153 0 010-.287l1.6-.59a4.72 4.72 0 002.796-2.796l.59-1.601a.153.153 0 01.288 0l.59 1.6a4.72 4.72 0 002.796 2.796l1.6.59a.153.153 0 010 .288l-1.6.59a4.72 4.72 0 00-2.795 2.796l-.591 1.601a.153.153 0 01-.287 0zm-4.86 2.18l3.068 1.132a.294.294 0 010 .55l-3.069 1.133a9.047 9.047 0 00-5.358 5.357l-1.131 3.07a.294.294 0 01-.552 0l-1.131-3.07a9.047 9.047 0 00-5.358-5.358l-3.069-1.131a.294.294 0 010-.551l3.069-1.132a9.047 9.047 0 005.358-5.358l1.131-3.068a.294.294 0 01.552 0l1.131 3.068a9.047 9.047 0 005.358 5.358zm5.812 12.433l-1-.37a2.95 2.95 0 01-1.747-1.746l-.37-1a.096.096 0 00-.18 0l-.368 1a2.95 2.95 0 01-1.747 1.747l-1 .369a.096.096 0 000 .18l1 .369a2.95 2.95 0 011.747 1.747l.369 1a.096.096 0 00.18 0l.369-1a2.95 2.95 0 011.747-1.747l1-.37a.096.096 0 000-.18zM23.3 26.157l1.334.492a.128.128 0 010 .24l-1.334.492a3.932 3.932 0 00-2.33 2.33l-.491 1.334a.128.128 0 01-.24 0l-.492-1.334a3.933 3.933 0 00-2.33-2.33l-1.334-.492a.128.128 0 010-.24l1.335-.492a3.934 3.934 0 002.33-2.33l.491-1.333a.128.128 0 01.24 0l.492 1.334a3.932 3.932 0 002.33 2.33zm3.082 18.588l-1.267-.467a3.738 3.738 0 01-2.213-2.213l-.468-1.268a.121.121 0 00-.227 0l-.468 1.268a3.737 3.737 0 01-2.213 2.213l-1.267.467a.121.121 0 000 .228l1.267.467a3.738 3.738 0 012.213 2.213l.468 1.268a.121.121 0 00.227 0l.468-1.268a3.737 3.737 0 012.213-2.213l1.267-.467a.121.121 0 000-.228z" fill="url(#paint2_radial_746_28708)"/><defs><radialGradient id="paint0_radial_746_28708" cx="0" cy="0" r="1" gradientUnits="userSpaceOnUse" gradientTransform="rotate(52.666 -.298 25.93) scale(53.5896 48.1998)"><stop stop-color="#6CA7E7"/><stop offset="1" stop-color="#345385"/></radialGradient><radialGradient id="paint1_radial_746_28708" cx="0" cy="0" r="1" gradientUnits="userSpaceOnUse" gradientTransform="matrix(0 53.9852 -48 0 33 6.007)"><stop stop-color="#263A5E"/><stop offset="1" stop-color="#0C1321"/></radialGradient><radialGradient id="paint2_radial_746_28708" cx="0" cy="0" r="1" gradientUnits="userSpaceOnUse" gradientTransform="matrix(15.00003 15.50003 -12.3264 11.92877 33 32)"><stop stop-color="#A4D2FF"/><stop offset="1" stop-color="#5C87BE"/></radialGradient></defs></svg>