<svg xmlns="http://www.w3.org/2000/svg" viewBox="0 0 125.3 29.28"><defs><style>.cls-1{fill:none;stroke:#12ca4f;stroke-miterlimit:10;stroke-width:0.46px;}.cls-2{fill:#12ca4f;}.cls-3{fill:#fefefe;}.cls-4{font-size:16px;font-family:Telex-Regular, Telex;letter-spacing:-0.1em;}.cls-5{letter-spacing:-0.13em;}.cls-6{letter-spacing:-0.11em;}.cls-7{letter-spacing:-0.17em;}.cls-8{letter-spacing:-0.1em;}</style></defs><g id="Capa_2" data-name="Capa 2"><g id="Capa_1-2" data-name="Capa 1"><circle class="cls-1" cx="14.64" cy="14.64" r="14.41"/><circle class="cls-2" cx="14.64" cy="14.64" r="13.7"/><polygon class="cls-3" points="17.35 7.34 8.08 9.82 8.08 19.76 17.48 22.27 17.35 7.34"/><rect class="cls-3" x="18.12" y="9.82" width="3.23" height="10.01"/><polygon class="cls-2" points="9.9 11.38 11.62 11.38 12.68 13.18 13.81 11.38 15.45 11.38 13.64 14.33 15.54 17.3 13.77 17.3 12.67 15.47 11.51 17.3 9.9 17.3 11.8 14.34 9.9 11.38"/><text class="cls-4" transform="translate(29.06 20.68)">Excel <tspan class="cls-5" x="32.25" y="0">P</tspan><tspan x="39.55" y="0">a</tspan><tspan class="cls-6" x="46.66" y="0">r</tspan><tspan x="51.21" y="0">a </tspan><tspan class="cls-7" x="60.72" y="0">T</tspan><tspan class="cls-8" x="66.37" y="0">odos</tspan></text></g></g></svg>